# Blender v2.73 (sub 0) OBJ File: 'floor.blend'
# www.blender.org
o Plane
v -8.162251 -0.037733 8.451188
v 8.263130 -0.037733 8.451188
v -8.162251 -0.037733 -7.974192
v 8.263130 -0.037733 -7.974192
v -8.162251 -0.557428 8.451188
v 8.263130 -0.557428 8.451188
v -8.162251 -0.557428 -7.974192
v 8.263130 -0.557428 -7.974192
vn 0.000000 -1.000000 0.000000
vn 0.000000 1.000000 0.000000
vn 0.000000 0.000000 1.000000
vn -1.000000 0.000000 0.000000
vn 0.000000 0.000000 -1.000000
vn 1.000000 0.000000 0.000000
s off
f 3//1 4//1 2//1
f 6//2 8//2 7//2
f 3//3 7//3 8//3
f 4//4 8//4 6//4
f 2//5 6//5 5//5
f 1//6 5//6 7//6
f 1//1 3//1 2//1
f 5//2 6//2 7//2
f 4//3 3//3 8//3
f 2//4 4//4 6//4
f 1//5 2//5 5//5
f 3//6 1//6 7//6
