# Blender v2.73 (sub 0) OBJ File: 'floor.blend'
# www.blender.org
v 262.292969 0.095637 -309.759460
v 262.292969 0.095637 309.759460
v -262.292969 0.095637 309.759369
v -262.292847 0.095637 -309.759552
v 262.293091 0.597684 -309.759308
v 262.292786 0.597684 309.759644
v -262.293060 0.597684 309.759338
v -262.292938 0.597684 -309.759460
vn 0.000000 -1.000000 -0.000000
vn 0.000000 1.000000 0.000000
vn 1.000000 0.000500 0.000000
vn -0.000000 0.000100 1.000000
vn -1.000000 -0.000100 -0.000000
vn 0.000000 0.000200 -1.000000
vn 1.000000 -0.000400 0.000000
vn -0.000000 -0.000400 1.000000
vn -1.000000 -0.000300 -0.000000
vn 0.000000 0.000300 -1.000000
s off
f 2//1 3//1 4//1
f 5//2 8//2 7//2
f 5//3 6//3 2//3
f 6//4 7//4 3//4
f 7//5 8//5 4//5
f 1//6 4//6 8//6
f 1//1 2//1 4//1
f 6//2 5//2 7//2
f 1//7 5//7 2//7
f 2//8 6//8 3//8
f 3//9 7//9 4//9
f 5//10 1//10 8//10
