# Blender v2.73 (sub 0) OBJ File: 'camera-bottom.blend'
# www.blender.org
o Cylinder.002
v -0.302714 -0.034109 0.147990
v -0.302714 -0.034109 -0.167989
v 0.451711 -0.157394 -0.167989
v 0.451711 -0.157394 0.147990
v -0.269494 0.259763 0.147990
v -0.269494 0.259763 -0.167989
v 0.484931 0.136478 -0.167989
v 0.484931 0.136478 0.147990
v 0.338097 0.010105 -0.096164
v 0.514879 -0.017013 -0.099221
v 0.335483 -0.007137 -0.094351
v 0.512265 -0.034255 -0.097407
v 0.333031 -0.023706 -0.089171
v 0.509813 -0.050825 -0.092227
v 0.330834 -0.038967 -0.080823
v 0.507616 -0.066086 -0.083879
v 0.328978 -0.052332 -0.069628
v 0.505760 -0.079451 -0.072685
v 0.327532 -0.063289 -0.056017
v 0.504314 -0.090407 -0.059073
v 0.326554 -0.071415 -0.040512
v 0.503336 -0.098534 -0.043568
v 0.326080 -0.076399 -0.023709
v 0.502862 -0.103517 -0.026765
v 0.326128 -0.078048 -0.006254
v 0.502910 -0.105167 -0.009310
v 0.326698 -0.076301 0.011183
v 0.503480 -0.103420 0.008127
v 0.327766 -0.071223 0.027930
v 0.504548 -0.098342 0.024874
v 0.329293 -0.063011 0.043345
v 0.506075 -0.090130 0.040289
v 0.331218 -0.051979 0.056836
v 0.508000 -0.079098 0.053780
v 0.333469 -0.038551 0.067883
v 0.510251 -0.065670 0.064827
v 0.335958 -0.023244 0.076062
v 0.512740 -0.050363 0.073006
v 0.338591 -0.006646 0.081060
v 0.515373 -0.033765 0.078003
v 0.341266 0.010605 0.082683
v 0.518048 -0.016513 0.079627
v 0.343879 0.027847 0.080870
v 0.520661 0.000728 0.077813
v 0.346332 0.044417 0.075689
v 0.523113 0.017298 0.072633
v 0.348528 0.059678 0.067342
v 0.525310 0.032559 0.064285
v 0.350385 0.073043 0.056147
v 0.527167 0.045924 0.053091
v 0.351830 0.083999 0.042535
v 0.528612 0.056881 0.039479
v 0.352809 0.092126 0.027030
v 0.529591 0.065007 0.023974
v 0.353283 0.097109 0.010227
v 0.530065 0.069991 0.007171
v 0.353234 0.098759 -0.007228
v 0.530016 0.071640 -0.010284
v 0.352665 0.097012 -0.024664
v 0.529447 0.069893 -0.027721
v 0.351596 0.091934 -0.041412
v 0.528378 0.064815 -0.044468
v 0.350070 0.083722 -0.056827
v 0.526852 0.056603 -0.059883
v 0.348144 0.072690 -0.070317
v 0.524926 0.045571 -0.073374
v 0.345894 0.059262 -0.081365
v 0.522676 0.032143 -0.084421
v 0.343404 0.043955 -0.089544
v 0.520186 0.016836 -0.092600
v 0.340771 0.027357 -0.094541
v 0.517553 0.000238 -0.097598
vt 0.771549 0.600090
vt 0.927478 0.600090
vt 0.927478 0.432431
vt 0.456754 0.838041
vt 0.613484 0.845793
vt 0.613484 0.440183
vt 0.771549 0.600757
vt 0.927478 0.600757
vt 0.927478 0.768416
vt 0.614151 0.838041
vt 0.614151 0.432431
vt 0.770882 0.440183
vt 0.400633 0.625120
vt 0.000333 0.625120
vt 0.000333 0.792779
vt 0.000333 0.456794
vt 0.400633 0.456794
vt 0.400633 0.624453
vt 0.771549 0.432431
vt 0.456754 0.432431
vt 0.771549 0.768416
vt 0.770882 0.845793
vt 0.400633 0.792779
vt 0.000333 0.624453
vt 0.491488 0.586155
vt 0.451144 0.586155
vt 0.451144 0.999752
vt 0.412350 0.586154
vt 0.412350 0.999752
vt 0.893533 0.827939
vt 0.893533 0.414341
vt 0.857780 0.414341
vt 0.826443 0.414341
vt 0.826443 0.827939
vt 0.825947 0.585659
vt 0.412350 0.585659
vt 0.412350 0.554321
vt 0.825947 0.554321
vt 0.412350 0.518569
vt 0.412350 0.479775
vt 0.825947 0.479775
vt 0.412350 0.439430
vt 0.412350 0.399086
vt 0.825947 0.399086
vt 0.412350 0.360292
vt 0.412350 0.324539
vt 0.825947 0.324539
vt 0.412350 0.293201
vt 0.825947 0.293201
vt 0.826443 0.413845
vt 0.826443 0.000248
vt 0.857780 0.000248
vt 0.857780 0.413845
vt 0.893533 0.000248
vt 0.932327 0.000248
vt 0.932327 0.413845
vt 0.638212 0.586154
vt 0.678557 0.586155
vt 0.678557 0.999752
vt 0.718901 0.586155
vt 0.718901 0.999752
vt 0.757695 0.586155
vt 0.757695 0.999752
vt 0.793448 0.586155
vt 0.824786 0.586155
vt 0.824786 0.999752
vt 0.412350 0.000248
vt 0.412350 0.031585
vt 0.825947 0.031585
vt 0.412350 0.067338
vt 0.825947 0.067338
vt 0.412350 0.106132
vt 0.412350 0.146477
vt 0.825947 0.146477
vt 0.412350 0.186821
vt 0.825947 0.186821
vt 0.412350 0.225615
vt 0.412350 0.261368
vt 0.825947 0.261368
vt 0.412350 0.292706
vt 0.637717 0.586155
vt 0.606379 0.586155
vt 0.606379 0.999752
vt 0.570626 0.586155
vt 0.185781 0.411854
vt 0.000248 0.185781
vt 0.226321 0.000248
vt 0.531832 0.999752
vt 0.531832 0.586155
vt 0.303535 0.435772
vt 0.403945 0.678183
vt 0.403945 0.558122
vt 0.491488 0.999752
vt 0.857780 0.827939
vt 0.825947 0.518569
vt 0.825947 0.439430
vt 0.825947 0.360292
vt 0.893533 0.413845
vt 0.638212 0.999752
vt 0.793448 0.999752
vt 0.825947 0.000248
vt 0.825947 0.106132
vt 0.825947 0.225615
vt 0.825947 0.292706
vt 0.637717 0.999752
vt 0.570626 0.999752
vt 0.388431 0.303535
vt 0.226321 0.411854
vt 0.337243 0.365909
vt 0.303535 0.388431
vt 0.266081 0.403945
vt 0.365909 0.337243
vt 0.411854 0.226321
vt 0.403945 0.266081
vt 0.403945 0.146020
vt 0.411854 0.185781
vt 0.303535 0.023671
vt 0.388431 0.108567
vt 0.337243 0.046193
vt 0.365909 0.074859
vt 0.266081 0.008157
vt 0.074859 0.046193
vt 0.185781 0.000248
vt 0.108566 0.023671
vt 0.146020 0.008157
vt 0.046193 0.074859
vt 0.008157 0.146021
vt 0.023670 0.108567
vt 0.023671 0.303535
vt 0.000248 0.226321
vt 0.008157 0.266082
vt 0.146020 0.403945
vt 0.074859 0.365909
vt 0.046193 0.337243
vt 0.108567 0.388431
vt 0.074859 0.778010
vt 0.108567 0.800533
vt 0.146020 0.816047
vt 0.108566 0.435772
vt 0.046193 0.749345
vt 0.000248 0.638423
vt 0.008157 0.678183
vt 0.023671 0.715637
vt 0.008157 0.558122
vt 0.000248 0.597883
vt 0.023670 0.520668
vt 0.074859 0.458295
vt 0.046193 0.486961
vt 0.185781 0.412350
vt 0.146020 0.420258
vt 0.226321 0.412349
vt 0.266081 0.420258
vt 0.365909 0.486961
vt 0.337243 0.458295
vt 0.388431 0.520668
vt 0.411854 0.638422
vt 0.411854 0.597883
vt 0.303535 0.800533
vt 0.388431 0.715637
vt 0.337243 0.778010
vt 0.365909 0.749344
vt 0.226321 0.823956
vt 0.266081 0.816047
vt 0.185781 0.823956
vn -0.993700 0.112300 0.000000
vn 0.000000 0.000000 -1.000000
vn 0.993700 -0.112300 0.000000
vn 0.000000 0.000000 1.000000
vn -0.161300 -0.986900 0.000000
vn 0.161300 0.986900 0.000000
vn -0.032500 -0.099700 -0.994500
vn -0.060900 -0.289600 -0.955200
vn -0.087100 -0.468400 -0.879200
vn -0.109800 -0.629200 -0.769400
vn -0.128400 -0.765800 -0.630100
vn -0.142000 -0.873000 -0.466500
vn -0.150200 -0.946700 -0.285000
vn -0.152500 -0.984000 -0.092600
vn -0.149100 -0.983400 0.103400
vn -0.139900 -0.945100 0.295400
vn -0.125300 -0.870400 0.476100
vn -0.105900 -0.762300 0.638500
vn -0.082400 -0.624900 0.776300
vn -0.055800 -0.463500 0.884300
vn -0.027000 -0.284300 0.958400
vn 0.002800 -0.094100 0.995600
vn 0.032500 0.099700 0.994500
vn 0.060900 0.289600 0.955200
vn 0.087100 0.468400 0.879200
vn 0.109800 0.629200 0.769400
vn 0.128400 0.765800 0.630100
vn 0.142000 0.873000 0.466500
vn 0.150200 0.946700 0.285000
vn 0.152500 0.984000 0.092600
vn 0.149100 0.983400 -0.103400
vn 0.139900 0.945100 -0.295500
vn 0.125300 0.870400 -0.476100
vn 0.105900 0.762300 -0.638500
vn 0.082400 0.624900 -0.776300
vn 0.055800 0.463500 -0.884300
vn 0.988300 -0.151600 -0.017100
vn -0.002800 0.094100 -0.995600
vn 0.027000 0.284300 -0.958400
vn -0.988300 0.151600 0.017100
vn -0.139900 -0.945100 0.295500
vn 0.988300 -0.151700 -0.017100
s off
f 6/1/1 2/2/1 1/3/1
f 7/4/2 3/5/2 2/6/2
f 8/7/3 4/8/3 3/9/3
f 8/10/4 5/11/4 1/12/4
f 2/13/5 3/14/5 4/15/5
f 7/16/6 6/17/6 5/18/6
f 5/19/1 6/1/1 1/3/1
f 6/20/2 7/4/2 2/6/2
f 7/21/3 8/7/3 3/9/3
f 4/22/4 8/10/4 1/12/4
f 1/23/5 2/13/5 4/15/5
f 8/24/6 7/16/6 5/18/6
f 10/25/7 12/26/7 11/27/7
f 12/26/8 14/28/8 13/29/8
f 13/30/9 14/31/9 16/32/9
f 16/32/10 18/33/10 17/34/10
f 17/35/11 18/36/11 20/37/11
f 19/38/12 20/37/12 22/39/12
f 22/39/13 24/40/13 23/41/13
f 23/41/14 24/40/14 26/42/14
f 26/42/15 28/43/15 27/44/15
f 27/44/16 28/43/16 30/45/16
f 30/45/17 32/46/17 31/47/17
f 32/46/18 34/48/18 33/49/18
f 33/50/19 34/51/19 36/52/19
f 35/53/20 36/52/20 38/54/20
f 38/54/21 40/55/21 39/56/21
f 40/57/22 42/58/22 41/59/22
f 42/58/23 44/60/23 43/61/23
f 44/60/24 46/62/24 45/63/24
f 45/63/25 46/62/25 48/64/25
f 48/64/26 50/65/26 49/66/26
f 50/67/27 52/68/27 51/69/27
f 52/68/28 54/70/28 53/71/28
f 53/71/29 54/70/29 56/72/29
f 56/72/30 58/73/30 57/74/30
f 58/73/31 60/75/31 59/76/31
f 59/76/32 60/75/32 62/77/32
f 62/77/33 64/78/33 63/79/33
f 63/79/34 64/78/34 66/80/34
f 66/81/35 68/82/35 67/83/35
f 67/83/36 68/82/36 70/84/36
f 12/85/37 60/86/37 44/87/37
f 71/88/38 72/89/38 10/25/38
f 70/84/39 72/89/39 71/88/39
f 39/90/40 25/91/40 31/92/40
f 9/93/7 10/25/7 11/27/7
f 11/27/8 12/26/8 13/29/8
f 15/94/9 13/30/9 16/32/9
f 15/94/10 16/32/10 17/34/10
f 19/38/11 17/35/11 20/37/11
f 21/95/12 19/38/12 22/39/12
f 21/95/13 22/39/13 23/41/13
f 25/96/14 23/41/14 26/42/14
f 25/96/15 26/42/15 27/44/15
f 29/97/41 27/44/41 30/45/41
f 29/97/17 30/45/17 31/47/17
f 31/47/18 32/46/18 33/49/18
f 35/53/19 33/50/19 36/52/19
f 37/98/20 35/53/20 38/54/20
f 37/98/21 38/54/21 39/56/21
f 39/99/22 40/57/22 41/59/22
f 41/59/23 42/58/23 43/61/23
f 43/61/24 44/60/24 45/63/24
f 47/100/25 45/63/25 48/64/25
f 47/100/26 48/64/26 49/66/26
f 49/101/27 50/67/27 51/69/27
f 51/69/28 52/68/28 53/71/28
f 55/102/29 53/71/29 56/72/29
f 55/102/30 56/72/30 57/74/30
f 57/74/31 58/73/31 59/76/31
f 61/103/32 59/76/32 62/77/32
f 61/103/33 62/77/33 63/79/33
f 65/104/34 63/79/34 66/80/34
f 65/105/35 66/81/35 67/83/35
f 69/106/36 67/83/36 70/84/36
f 24/107/37 14/108/37 12/85/37
f 20/109/37 18/110/37 16/111/37
f 14/108/37 22/112/37 20/109/37
f 28/113/42 26/114/42 24/107/42
f 32/115/42 30/116/42 28/113/42
f 40/117/37 34/118/37 32/115/37
f 40/117/37 38/119/37 36/120/37
f 44/87/37 42/121/37 40/117/37
f 52/122/37 46/123/37 44/87/37
f 52/122/37 50/124/37 48/125/37
f 60/86/37 54/126/37 52/122/37
f 60/86/37 58/127/37 56/128/37
f 66/129/37 62/130/37 60/86/37
f 62/130/37 66/129/37 64/131/37
f 10/132/37 70/133/37 68/134/37
f 70/133/37 10/132/37 72/135/37
f 20/109/37 16/111/37 14/108/37
f 14/108/37 24/107/37 22/112/37
f 24/107/37 32/115/37 28/113/37
f 34/118/37 40/117/37 36/120/37
f 52/122/37 48/125/37 46/123/37
f 60/86/37 56/128/37 54/126/37
f 12/85/37 66/129/37 60/86/37
f 12/85/37 10/132/37 68/134/37
f 44/87/37 24/107/37 12/85/37
f 44/87/37 40/117/37 32/115/37
f 60/86/37 52/122/37 44/87/37
f 12/85/37 68/134/37 66/129/37
f 44/87/37 32/115/37 24/107/37
f 9/93/38 71/88/38 10/25/38
f 69/106/39 70/84/39 71/88/39
f 69/136/40 71/137/40 9/138/40
f 49/139/40 67/140/40 69/136/40
f 61/141/40 63/142/40 65/143/40
f 57/144/40 59/145/40 61/141/40
f 49/139/40 55/146/40 57/144/40
f 55/146/40 51/147/40 53/148/40
f 45/149/40 47/150/40 49/139/40
f 39/90/40 43/151/40 45/149/40
f 43/151/40 39/90/40 41/152/40
f 39/90/40 35/153/40 37/154/40
f 35/153/40 31/92/40 33/155/40
f 25/91/40 27/156/40 29/157/40
f 17/158/40 23/159/40 25/91/40
f 17/158/40 19/160/40 21/161/40
f 13/162/40 15/163/40 17/158/40
f 9/138/40 11/164/40 13/162/40
f 25/91/40 69/136/40 9/138/40
f 67/140/40 61/141/40 65/143/40
f 49/139/40 51/147/40 55/146/40
f 57/144/40 67/140/40 49/139/40
f 45/149/40 25/91/40 39/90/40
f 25/91/40 29/157/40 31/92/40
f 17/158/40 21/161/40 23/159/40
f 9/138/40 13/162/40 17/158/40
f 57/144/40 61/141/40 67/140/40
f 69/136/40 45/149/40 49/139/40
f 39/90/40 31/92/40 35/153/40
f 9/138/40 17/158/40 25/91/40
f 25/91/40 45/149/40 69/136/40
